<?xml version="1.0" encoding="UTF-8"?>
<svg version="1.1" xmlns="http://www.w3.org/2000/svg" width="48" height="48">
<path d="M0 0 C15.84 0 31.68 0 48 0 C48 15.84 48 31.68 48 48 C32.16 48 16.32 48 0 48 C0 32.16 0 16.32 0 0 Z " fill="#FDF8F8" transform="translate(0,0)"/>
<path d="M0 0 C1 2 1 2 1 4 C2.32 4.66 3.64 5.32 5 6 C3.68 6.33 2.36 6.66 1 7 C0.855625 8.093125 0.71125 9.18625 0.5625 10.3125 C0 14 0 14 -1 17 C-1.66 17 -2.32 17 -3 17 C-6.08461758 13.78685668 -6.93761816 10.24952734 -8 6 C-7.01 6 -6.02 6 -5 6 C-4.34 5.34 -3.68 4.68 -3 4 C-3.66 3.67 -4.32 3.34 -5 3 C-3.35 2.01 -1.7 1.02 0 0 Z " fill="#F0E8DF" transform="translate(26,16)"/>
<path d="M0 0 C4.34181831 0.50486259 7.5475492 1.23803936 11 4 C11.8125 6.6875 11.8125 6.6875 12 9 C8 7 4 5 0 3 C0 2.01 0 1.02 0 0 Z " fill="#D8CDCD" transform="translate(23,11)"/>
<path d="M0 0 C0.66 0 1.32 0 2 0 C2.93423645 3.01031744 3.04449911 3.86650268 2 7 C1.34 7 0.68 7 0 7 C-0.93423645 3.98968256 -1.04449911 3.13349732 0 0 Z " fill="#E7DCCE" transform="translate(23,26)"/>
<path d="M0 0 C1.32 0.33 2.64 0.66 4 1 C4 1.66 4 2.32 4 3 C4.99 3.33 5.98 3.66 7 4 C6.01 4.495 6.01 4.495 5 5 C2.375 4.0625 2.375 4.0625 0 3 C0 2.01 0 1.02 0 0 Z " fill="#E7DFDF" transform="translate(23,11)"/>
</svg>
